<?xml version="1.0"?>
<svg width="1024" height="768" xmlns="http://www.w3.org/2000/svg" xmlns:svg="http://www.w3.org/2000/svg" version="1.1" xml:space="preserve">
 <metadata id="metadata8">image/svg+xml</metadata>
 <defs id="defs6">
  <clipPath clipPathUnits="userSpaceOnUse" id="clipPath18">
   <path class="HRnKcCHK_0" d="m-156.5,1340l1080,0l0,-1080l-1080,0l0,1080z" id="path16"/>
  </clipPath>
 </defs>
 <style data-made-with="vivus-instant">.HRnKcCHK_0{stroke-dasharray:4320 4322;stroke-dashoffset:4321;animation:HRnKcCHK_draw 2000ms linear 0ms forwards;}.HRnKcCHK_1{stroke-dasharray:1812 1814;stroke-dashoffset:1813;animation:HRnKcCHK_draw 2000ms linear 66ms forwards;}.HRnKcCHK_2{stroke-dasharray:1227 1229;stroke-dashoffset:1228;animation:HRnKcCHK_draw 2000ms linear 133ms forwards;}.HRnKcCHK_3{stroke-dasharray:986 988;stroke-dashoffset:987;animation:HRnKcCHK_draw 2000ms linear 200ms forwards;}.HRnKcCHK_4{stroke-dasharray:396 398;stroke-dashoffset:397;animation:HRnKcCHK_draw 2000ms linear 266ms forwards;}.HRnKcCHK_5{stroke-dasharray:276 278;stroke-dashoffset:277;animation:HRnKcCHK_draw 2000ms linear 333ms forwards;}.HRnKcCHK_6{stroke-dasharray:333 335;stroke-dashoffset:334;animation:HRnKcCHK_draw 2000ms linear 400ms forwards;}.HRnKcCHK_7{stroke-dasharray:335 337;stroke-dashoffset:336;animation:HRnKcCHK_draw 2000ms linear 466ms forwards;}.HRnKcCHK_8{stroke-dasharray:238 240;stroke-dashoffset:239;animation:HRnKcCHK_draw 2000ms linear 533ms forwards;}.HRnKcCHK_9{stroke-dasharray:337 339;stroke-dashoffset:338;animation:HRnKcCHK_draw 2000ms linear 600ms forwards;}.HRnKcCHK_10{stroke-dasharray:514 516;stroke-dashoffset:515;animation:HRnKcCHK_draw 2000ms linear 666ms forwards;}.HRnKcCHK_11{stroke-dasharray:333 335;stroke-dashoffset:334;animation:HRnKcCHK_draw 2000ms linear 733ms forwards;}.HRnKcCHK_12{stroke-dasharray:238 240;stroke-dashoffset:239;animation:HRnKcCHK_draw 2000ms linear 800ms forwards;}.HRnKcCHK_13{stroke-dasharray:169 171;stroke-dashoffset:170;animation:HRnKcCHK_draw 2000ms linear 866ms forwards;}.HRnKcCHK_14{stroke-dasharray:337 339;stroke-dashoffset:338;animation:HRnKcCHK_draw 2000ms linear 933ms forwards;}.HRnKcCHK_15{stroke-dasharray:396 398;stroke-dashoffset:397;animation:HRnKcCHK_draw 2000ms linear 1000ms forwards;}@keyframes HRnKcCHK_draw{100%{stroke-dashoffset:0;}}@keyframes HRnKcCHK_fade{0%{stroke-opacity:1;}94.44444444444444%{stroke-opacity:1;}100%{stroke-opacity:0;}}</style>
 <g class="layer">
  <title>Layer 1</title>
  <g id="g10" transform="matrix(1.33333 0 0 -1.33333 0 1440)">
   <g id="g12">
    <g clip-path="url(#clipPath18)" id="g14">
     <g id="g20" transform="translate(380.087 541.461)">
      <path class="HRnKcCHK_1" d="m-156.5,260l-61.57,0l0,48.13l120.68,0c2.99,-16.36 2.35,-32.92 -1.1,-49.35c-7.53,-35.87 -27.78,-62.49 -59.54,-80.4c-3.78,-2.12 -5.12,-4.36 -4.8,-8.64c0.78,-10.12 1.05,-20.29 1.54,-30.8c-10.7,-3.23 -20.97,-6.54 -31.4,-9.25c-1.67,-0.43 -4.9,1.26 -5.94,2.9c-4.97,7.88 -9.62,15.97 -13.98,24.19c-1.99,3.75 -4.59,4.53 -8.62,5.23c-11.22,1.95 -18.27,-2.49 -23.63,-11.92c-3.09,-5.43 -7.14,-10.36 -11.21,-15.13c-1.07,-1.25 -4.17,-1.96 -5.78,-1.38c-8.56,3.06 -16.88,6.78 -25.42,9.92c-3.61,1.32 -4.37,3.32 -3.81,6.86c1.48,9.42 2.88,18.86 3.81,28.34c0.2,1.98 -1.73,4.18 -2.71,6.27c-0.07,0.15 -0.4,0.17 -0.55,0.31c-8.22,8.04 -17.04,8.44 -26.54,2.28c-1.78,-1.16 -3.99,-1.66 -6,-2.46c-14.06,-5.61 -14.1,-5.64 -23.57,6.44c-3.86,4.92 -10.3,9.93 -10.43,15.03c-0.14,5.11 6.11,10.4 9.6,15.6c1.08,1.62 2.04,3.42 3.45,4.71c8.1,7.37 8.77,15.62 2.74,24.38c-1.61,2.32 -4.2,4.84 -6.77,5.47c-7.77,1.88 -15.74,3.02 -23.67,4.16c-3.51,0.51 -5.36,1.74 -5.6,5.62c-0.52,8.21 -1.29,16.42 -2.35,24.59c-0.49,3.79 0.9,5.46 4.28,6.66c8.57,3.04 17.15,6.12 25.49,9.71c2.3,0.99 4.24,3.62 5.53,5.95c1.33,2.39 2.2,5.33 2.29,8.05c0.08,2.65 -0.28,6.03 -1.85,7.89c-6.03,7.09 -12.53,13.79 -19.07,20.42c-2.36,2.4 -2.79,4.27 -0.9,7.23c4.41,6.95 8.22,14.29 12.82,21.1c1.14,1.67 4.51,2.95 6.61,2.66c8.35,-1.19 16.69,-2.76 24.87,-4.82c4.23,-1.07 6.4,0.72 9.63,2.93c8.42,5.74 9.46,12.53 6.16,21.53c-2.21,6.06 -3.34,12.57 -4.31,18.98c-0.28,1.82 1.17,4.93 2.76,5.83c7.52,4.27 15.47,7.81 23.06,11.98c3.18,1.74 5.04,0.83 7.23,-1.44c6.45,-6.72 13,-13.35 19.58,-19.95c5.01,-5.02 18.58,-2.2 21.14,4.44c3.43,8.9 6.91,17.78 9.9,26.83c1.44,4.36 3.69,5.61 8.1,5c8.15,-1.12 16.36,-1.97 24.57,-2.46c3.97,-0.24 5.06,-2.1 5.5,-5.58c1.09,-8.82 2.69,-17.57 3.59,-26.4c0.37,-3.65 2.38,-4.74 5.12,-6.44c10.05,-6.26 18.55,-4.97 27.09,3.12c5.13,4.88 11.46,8.5 17.86,13.13c7.71,-6.12 15.6,-12.11 23.08,-18.57c1.15,-0.99 1.11,-4.37 0.46,-6.24c-2.77,-7.97 -5.7,-15.92 -9.14,-23.63c-2.13,-4.78 -1.72,-8.48 1.74,-12.33c2.28,-2.55 3.99,-5.6 6.27,-8.86c-13.7,-12.58 -27.19,-24.97 -41.35,-37.98c-2.42,3.44 -4.44,6.4 -6.55,9.29c-32.1,43.81 -96.45,39.95 -121.77,-7.66c-12.16,-22.88 -11.24,-46.09 2.96,-67.92c14.76,-22.7 36.11,-33.98 63.29,-32.42c22.36,1.29 40.01,11.7 52.49,30.47c1.4,2.1 2.46,4.43 4.64,8.4" fill="#ffffff" fill-rule="nonzero" id="path22"/>
     </g>
     <g id="g24" transform="translate(437.197 464.387)">
      <path class="HRnKcCHK_2" d="m-156.5,260c15.43,15.46 30.7,30.76 46.23,46.34c2.97,-2.93 6.12,-6.09 9.33,-9.2c17.51,-16.93 37.64,-27.05 62.71,-23.08c5.18,0.82 10.58,2.88 14.94,5.79c10.58,7.08 11.35,20.58 0.93,27.78c-7.1,4.91 -15.77,7.92 -24.12,10.52c-11.98,3.73 -24.47,5.77 -36.45,9.47c-39.2,12.1 -58.7,37.7 -58.49,75.99c0.21,37.63 22.9,68.49 60.49,78.24c47.49,12.33 90.21,3.15 125.21,-33.27c1.34,-1.4 2.58,-2.89 3.01,-3.38c-14.73,-15.58 -29.23,-30.91 -43.78,-46.3c-5.67,5.17 -10.35,9.98 -15.58,14.08c-12.57,9.87 -26.81,14.02 -42.67,10.56c-8.05,-1.75 -15.65,-4.8 -17.58,-14.15c-1.34,-6.5 3.64,-14.17 13.35,-17.98c10.21,-4.01 21.1,-6.3 31.68,-9.38c8.73,-2.54 17.62,-4.64 26.13,-7.78c46.51,-17.19 66.19,-60.81 48.65,-107.29c-9.67,-25.64 -28.41,-42.37 -54.16,-49.29c-55.68,-14.96 -105.54,-4.51 -146.6,38.17c-1.04,1.09 -2.01,2.26 -2.96,3.44c-0.25,0.31 -0.29,0.79 -0.27,0.72" fill="#ffffff" fill-rule="nonzero" id="path26"/>
     </g>
     <g id="g28" transform="translate(652.404 560.284)">
      <path class="HRnKcCHK_3" d="m-156.5,260c53.95,68.46 106.89,135.65 159.84,202.84c0.78,-0.29 1.56,-0.58 2.33,-0.87c-0.34,-2.46 -0.23,-5.1 -1.1,-7.36c-16.58,-42.96 -33.28,-85.89 -49.96,-128.81c-3.45,-8.87 -6.97,-17.7 -10.39,-26.57c-4.91,-12.75 1.16,-22.13 15,-22.53c13.65,-0.38 27.31,-0.13 40.96,-0.21c2.75,-0.02 5.5,-0.26 9.51,-0.47c-1.41,-2.61 -2,-4.4 -3.14,-5.72c-40.13,-46.52 -80.65,-92.71 -120.2,-139.71c-7.78,-9.24 -15.55,-13.23 -27.01,-11.94c-4.63,0.53 -9.37,0.09 -15.34,0.09c2.79,5.13 4.79,9.12 7.08,12.94c21.82,36.35 43.78,72.62 65.41,109.09c1.88,3.17 3.34,8.51 1.91,11.18c-1.43,2.66 -6.7,4.3 -10.39,4.53c-19.67,1.21 -39.38,1.83 -59.08,2.68c-1.03,0.04 -2.06,0.31 -5.43,0.84" fill="#f8780a" fill-rule="nonzero" id="path30"/>
     </g>
     <g id="g32" transform="translate(862.596 556.903)">
      <path class="HRnKcCHK_4" d="m-156.5,260c20.19,-45.87 40.23,-91.4 60.59,-137.64c-1.87,-0.25 -3.03,-0.53 -4.2,-0.54c-22.75,-0.07 -45.5,-0.02 -68.25,-0.24c-4.03,-0.04 -6.17,1.15 -7.8,4.95c-10.92,25.48 -22.14,50.83 -33.04,76.32c-0.8,1.87 -0.73,5.44 0.5,6.67c16.62,16.77 33.53,33.26 50.38,49.8c0.28,0.27 0.78,0.31 1.82,0.68" fill="#ffffff" fill-rule="nonzero" id="path34"/>
     </g>
     <g id="g36" transform="translate(847.16 594.998)">
      <path class="HRnKcCHK_5" d="m-156.5,260c-2.32,-0.28 -3.94,-0.64 -5.57,-0.64c-20.8,0.02 -41.6,0.04 -62.41,0.17c-7.87,0.05 -9.23,2.26 -6.39,9.54c9.89,25.43 19.76,50.88 29.65,76.31c0.77,2 1.67,3.95 3.15,7.45c14.06,-31.4 27.59,-61.6 41.57,-92.83" fill="#ffffff" fill-rule="nonzero" id="path38"/>
     </g>
     <g id="g40" transform="translate(263.675 343.288)">
      <path class="HRnKcCHK_6" d="m-156.5,260l17.84,0l-6.96,30.64l-3.83,0l-7.05,-30.64zm-21.27,-25.2l16.93,68.54l26.61,0l17.04,-68.54l-16.03,0l-3.42,12.6l-22.18,0l-3.22,-12.6l-15.73,0z" fill="#f9790b" fill-rule="nonzero" id="path42"/>
     </g>
     <g id="g44" transform="translate(334.633 316.879)">
      <path class="HRnKcCHK_7" d="m-156.5,260c-5.85,0 -10.8,0.76 -14.87,2.27c-4.06,1.51 -7.12,4.01 -9.17,7.51c-2.05,3.49 -3.07,8.23 -3.07,14.21l0,45.76l15.92,0l0,-46.37c0,-3.56 0.94,-6.11 2.82,-7.66c1.88,-1.54 4.67,-2.31 8.37,-2.31c3.76,0 6.58,0.77 8.47,2.31c1.88,1.55 2.82,4.1 2.82,7.66l0,46.37l15.92,0l0,-45.56c0,-5.91 -1.02,-10.65 -3.07,-14.21c-2.05,-3.56 -5.11,-6.12 -9.17,-7.66c-4.07,-1.55 -9.06,-2.32 -14.97,-2.32" fill="#f9790b" fill-rule="nonzero" id="path46"/>
     </g>
     <g id="g48" transform="translate(385.635 318.089)">
      <path class="HRnKcCHK_8" d="m-156.5,260l0,55.23l-17.44,0l0,13.31l50.4,0l0,-13.31l-17.03,0l0,-55.23l-15.93,0z" fill="#f9790b" fill-rule="nonzero" id="path50"/>
     </g>
     <g id="g52" transform="translate(452.058 330.184)">
      <path class="HRnKcCHK_9" d="m-156.5,260c3.9,0 6.82,0.81 8.77,2.42c1.95,1.61 3.26,4.06 3.93,7.36c0.67,3.29 1.01,7.35 1.01,12.19c0,4.84 -0.34,8.94 -1.01,12.3c-0.67,3.36 -1.98,5.9 -3.93,7.61c-1.95,1.71 -4.87,2.57 -8.77,2.57c-3.83,0 -6.74,-0.86 -8.72,-2.57c-1.98,-1.71 -3.33,-4.23 -4.03,-7.56c-0.71,-3.33 -1.06,-7.44 -1.06,-12.35c0,-4.77 0.35,-8.8 1.06,-12.09c0.7,-3.3 2.03,-5.77 3.98,-7.41c1.95,-1.65 4.87,-2.47 8.77,-2.47m0,-13.3c-7.33,0 -13.19,1.27 -17.59,3.83c-4.4,2.55 -7.57,6.45 -9.52,11.69c-1.95,5.24 -2.93,11.82 -2.93,19.75c0,8 0.98,14.63 2.93,19.91c1.95,5.27 5.12,9.22 9.52,11.84c4.4,2.62 10.27,3.93 17.59,3.93c7.32,0 13.17,-1.31 17.54,-3.93c4.37,-2.62 7.52,-6.57 9.47,-11.84c1.95,-5.28 2.93,-11.91 2.93,-19.91c0,-8.06 -0.98,-14.7 -2.93,-19.9c-1.95,-5.21 -5.09,-9.07 -9.42,-11.6c-4.34,-2.51 -10.2,-3.77 -17.59,-3.77" fill="#f9790b" fill-rule="nonzero" id="path54"/>
     </g>
     <g id="g56" transform="translate(491.165 318.089)">
      <path class="HRnKcCHK_10" d="m-156.5,260l0,68.54l25,0l12.09,-41.73l11.59,41.73l25.5,0l0,-68.54l-15.92,0l0,47.58l-1.31,0l-12.7,-45.97l-14.41,0l-12.6,45.97l-1.31,0l0,-47.58l-15.93,0z" fill="#f9790b" fill-rule="nonzero" id="path58"/>
     </g>
     <g id="g60" transform="translate(593.169 343.288)">
      <path class="HRnKcCHK_11" d="m-156.5,260l17.84,0l-6.96,30.64l-3.83,0l-7.05,-30.64zm-21.27,-25.2l16.94,68.54l26.6,0l17.04,-68.54l-16.03,0l-3.42,12.6l-22.18,0l-3.22,-12.6l-15.73,0z" fill="#f9790b" fill-rule="nonzero" id="path62"/>
     </g>
     <g id="g64" transform="translate(646.085 318.089)">
      <path class="HRnKcCHK_12" d="m-156.5,260l0,55.23l-17.44,0l0,13.31l50.4,0l0,-13.31l-17.03,0l0,-55.23l-15.93,0z" fill="#f9790b" fill-rule="nonzero" id="path66"/>
     </g>
     <path class="HRnKcCHK_13" d="m529.3,646.63l15.92,0l0,-68.54l-15.92,0l0,68.54z" fill="#f9790b" fill-rule="nonzero" id="path68"/>
     <g id="g70" transform="translate(741.033 330.184)">
      <path class="HRnKcCHK_14" d="m-156.5,260c3.9,0 6.82,0.81 8.77,2.42c1.95,1.61 3.26,4.06 3.93,7.36c0.67,3.29 1.01,7.35 1.01,12.19c0,4.84 -0.34,8.94 -1.01,12.3c-0.67,3.36 -1.98,5.9 -3.93,7.61c-1.95,1.71 -4.87,2.57 -8.77,2.57c-3.83,0 -6.74,-0.86 -8.72,-2.57c-1.98,-1.71 -3.32,-4.23 -4.03,-7.56c-0.71,-3.33 -1.06,-7.44 -1.06,-12.35c0,-4.77 0.35,-8.8 1.06,-12.09c0.71,-3.3 2.03,-5.77 3.98,-7.41c1.95,-1.65 4.87,-2.47 8.77,-2.47m0,-13.3c-7.33,0 -13.19,1.27 -17.59,3.83c-4.4,2.55 -7.58,6.45 -9.52,11.69c-1.95,5.24 -2.93,11.82 -2.93,19.75c0,8 0.98,14.63 2.93,19.91c1.94,5.27 5.12,9.22 9.52,11.84c4.4,2.62 10.26,3.93 17.59,3.93c7.32,0 13.17,-1.31 17.54,-3.93c4.37,-2.62 7.52,-6.57 9.47,-11.84c1.95,-5.28 2.93,-11.91 2.93,-19.91c0,-8.06 -0.98,-14.7 -2.93,-19.9c-1.95,-5.21 -5.09,-9.08 -9.42,-11.6c-4.34,-2.51 -10.2,-3.77 -17.59,-3.77" fill="#f9790b" fill-rule="nonzero" id="path72"/>
     </g>
     <g id="g74" transform="translate(780.141 318.089)">
      <path class="HRnKcCHK_15" d="m-156.5,260l0,68.54l19.15,0l20.66,-43.54l1.72,0l0,43.54l15.92,0l0,-68.54l-18.95,0l-20.86,44.55l-1.72,0l0,-44.55l-15.92,0z" fill="#f9790b" fill-rule="nonzero" id="path76"/>
     </g>
    </g>
   </g>
  </g>
 </g>
</svg>